<?xml version="1.0" standalone="no"?>
<!DOCTYPE svg PUBLIC "-//W3C//DTD SVG 20010904//EN"
 "http://www.w3.org/TR/2001/REC-SVG-20010904/DTD/svg10.dtd">
<svg version="1.0" xmlns="http://www.w3.org/2000/svg"
 width="512.000000pt" height="512.000000pt" viewBox="0 0 512.000000 512.000000"
 preserveAspectRatio="xMidYMid meet">
<metadata>
Created by potrace 1.11, written by Peter Selinger 2001-2013
</metadata>
<g transform="translate(0.000000,512.000000) scale(0.100000,-0.100000)"
fill="#000000" stroke="none">
<path d="M2429 3939 c-41 -45 -84 -101 -96 -124 -12 -24 -36 -53 -53 -65 -17
-12 -39 -39 -50 -60 -11 -21 -33 -49 -48 -62 -16 -12 -42 -43 -57 -68 -15 -25
-43 -62 -63 -84 -19 -21 -43 -58 -53 -82 -11 -24 -33 -53 -49 -64 -17 -12 -39
-39 -50 -61 -11 -21 -34 -49 -51 -61 -17 -13 -40 -40 -50 -60 -10 -20 -34 -52
-52 -70 -19 -18 -49 -61 -68 -96 -18 -34 -41 -64 -50 -67 -9 -3 -28 -28 -43
-55 -15 -27 -40 -59 -55 -72 -16 -13 -43 -46 -60 -75 -17 -28 -43 -58 -56 -67
-33 -22 -32 -55 5 -101 17 -21 30 -47 30 -59 0 -30 43 -117 69 -140 12 -11 33
-41 48 -67 15 -29 37 -52 53 -59 21 -9 34 -27 50 -65 17 -41 29 -56 51 -64 16
-5 29 -16 29 -23 0 -29 49 -115 84 -148 20 -19 46 -52 57 -73 11 -21 36 -47
54 -59 25 -14 38 -31 46 -60 6 -22 23 -52 39 -67 15 -14 42 -54 59 -88 18 -36
46 -73 67 -89 19 -15 45 -47 56 -71 14 -29 31 -48 52 -57 23 -10 34 -23 44
-55 12 -42 160 -223 187 -229 6 -2 32 20 56 48 24 28 61 70 82 93 21 23 43 62
50 86 9 34 19 47 44 59 19 9 39 30 49 51 9 20 38 57 64 83 32 30 55 64 67 97
12 34 30 62 54 81 25 20 39 40 43 64 5 26 15 40 37 51 16 9 45 39 64 68 19 29
46 63 60 76 30 28 60 82 70 129 4 21 12 32 24 32 23 0 45 25 66 75 9 22 30 49
47 60 18 11 42 40 55 64 12 24 34 54 48 67 29 27 64 98 65 131 0 12 11 34 24
50 12 15 29 39 36 52 11 22 9 27 -24 58 -20 19 -45 52 -56 72 -10 21 -35 50
-54 65 -19 14 -44 46 -55 70 -10 25 -29 49 -40 56 -12 6 -34 36 -50 68 -16 31
-41 68 -56 82 -15 14 -43 49 -62 77 -18 29 -45 60 -59 70 -14 9 -36 38 -50 65
-14 27 -36 54 -50 60 -15 7 -34 33 -51 70 -14 32 -38 69 -53 81 -14 13 -39 47
-55 76 -16 29 -41 59 -55 66 -15 8 -37 34 -51 60 -13 25 -40 56 -61 70 -23 16
-39 35 -43 55 -4 16 -23 47 -43 68 -20 21 -51 54 -68 73 -71 79 -62 80 -145
-12z"/>
</g>
</svg>
